<svg xmlns="http://www.w3.org/2000/svg" width="1280" height="640" viewBox="0 0 1280 640" role="img" aria-labelledby="title desc">
  <title id="title">Maintainer Defense Kit</title>
  <desc id="desc">Protect maintainer attention without guessing who used AI.</desc>
  <defs>
    <linearGradient id="bg" x1="0" y1="0" x2="1" y2="1">
      <stop offset="0" stop-color="#0B1220"/>
      <stop offset="1" stop-color="#111F2D"/>
    </linearGradient>
    <linearGradient id="shield" x1="0" y1="0" x2="0.9" y2="1">
      <stop offset="0" stop-color="#B8F36B"/>
      <stop offset="1" stop-color="#43D5B0"/>
    </linearGradient>
    <filter id="glow" x="-50%" y="-50%" width="200%" height="200%">
      <feGaussianBlur stdDeviation="16"/>
    </filter>
  </defs>

  <rect width="1280" height="640" fill="url(#bg)"/>
  <circle cx="1102" cy="126" r="180" fill="#43D5B0" opacity="0.06"/>
  <circle cx="1022" cy="526" r="225" fill="#B8F36B" opacity="0.035"/>
  <path d="M0 552 H1280" stroke="#2A3B4A"/>

  <g transform="translate(76 68)">
    <rect width="300" height="38" rx="19" fill="#172636" stroke="#324759"/>
    <circle cx="22" cy="19" r="6" fill="#B8F36B"/>
    <text x="40" y="25" fill="#AFC0CE" font-family="Inter, ui-sans-serif, system-ui, sans-serif" font-size="15" font-weight="700" letter-spacing="2">OPEN-SOURCE OPERATIONS</text>
  </g>

  <g transform="translate(76 155)" font-family="Inter, ui-sans-serif, system-ui, sans-serif">
    <text x="0" y="0" fill="#F4F0E6" font-size="59" font-weight="800" letter-spacing="-1.5">MAINTAINER</text>
    <text x="0" y="68" fill="#B8F36B" font-size="59" font-weight="800" letter-spacing="-1.5">DEFENSE KIT</text>
    <text x="2" y="134" fill="#D0DAE2" font-size="28" font-weight="500">Protect maintainer attention</text>
    <text x="2" y="174" fill="#D0DAE2" font-size="28" font-weight="500">without guessing who used AI.</text>
  </g>

  <g transform="translate(76 402)" font-family="Inter, ui-sans-serif, system-ui, sans-serif" font-size="14" font-weight="700" letter-spacing="1.2">
    <g><rect width="190" height="40" rx="8" fill="#142535" stroke="#365066"/><text x="18" y="26" fill="#B8F36B">READ-ONLY DEFAULT</text></g>
    <g transform="translate(206)"><rect width="132" height="40" rx="8" fill="#142535" stroke="#365066"/><text x="18" y="26" fill="#B8F36B">REVERSIBLE</text></g>
    <g transform="translate(354)"><rect width="168" height="40" rx="8" fill="#142535" stroke="#365066"/><text x="18" y="26" fill="#B8F36B">EVIDENCE-FIRST</text></g>
  </g>

  <g transform="translate(846 102)">
    <path d="M164 16 C226 54 274 62 320 68 V190 C320 286 260 360 164 402 C68 360 8 286 8 190 V68 C54 62 102 54 164 16Z" fill="#43D5B0" opacity="0.14" filter="url(#glow)"/>
    <path d="M164 16 C226 54 274 62 320 68 V190 C320 286 260 360 164 402 C68 360 8 286 8 190 V68 C54 62 102 54 164 16Z" fill="#102231" stroke="url(#shield)" stroke-width="5"/>
    <path d="M164 58 C209 83 244 92 278 97 V188 C278 253 239 306 164 344 C89 306 50 253 50 188 V97 C84 92 119 83 164 58Z" fill="none" stroke="#3B5668" stroke-width="2"/>
    <path d="M104 191 L148 235 L234 139" fill="none" stroke="url(#shield)" stroke-width="18" stroke-linecap="round" stroke-linejoin="round"/>
    <g fill="#0B1220" stroke="#B8F36B" stroke-width="3">
      <circle cx="164" cy="16" r="8"/><circle cx="320" cy="68" r="8"/><circle cx="164" cy="402" r="8"/><circle cx="8" cy="68" r="8"/>
    </g>
  </g>

  <g transform="translate(76 582)" font-family="Inter, ui-sans-serif, system-ui, sans-serif">
    <text fill="#8EA2B2" font-size="16" font-weight="600">github.com/thangldw/awesome-maintainer-defense</text>
    <text x="1040" fill="#B8F36B" font-size="17" font-weight="800" letter-spacing="2">EN · VI · JA</text>
  </g>
</svg>
